<?xml version="1.0" encoding="UTF-8" standalone="no"?>
<!DOCTYPE svg PUBLIC "-//W3C//DTD SVG 1.1//EN" "http://www.w3.org/Graphics/SVG/1.1/DTD/svg11.dtd">
<!-- Created with Vectornator (http://vectornator.io/) -->
<svg height="100%" stroke-miterlimit="10" style="fill-rule:nonzero;clip-rule:evenodd;stroke-linecap:round;stroke-linejoin:round;" version="1.1" viewBox="0 0 1024 1024" width="100%" xml:space="preserve" xmlns="http://www.w3.org/2000/svg" xmlns:vectornator="http://vectornator.io" xmlns:xlink="http://www.w3.org/1999/xlink">
<defs>
<path d="M284 100L740 100C841.62 100 924 182.38 924 284L924 740C924 841.62 841.62 924 740 924L284 924C182.38 924 100 841.62 100 740L100 284C100 182.38 182.38 100 284 100Z" fill-rule="evenodd" id="Fill"/>
</defs>
<g id="Icon" vectornator:layerName="Icon">
<g opacity="1">
<use fill="#ffffff" opacity="1" stroke="none" xlink:href="#Fill"/>
<clipPath id="ClipPath">
<use xlink:href="#Fill"/>
</clipPath>
<g clip-path="url(#ClipPath)">
<path d="M0 0L1024 0L1024 1024L0 1024L0 0Z" fill="#99d0ff" fill-rule="evenodd" opacity="1" stroke="none"/>
<path d="M870.22 324L870.22 324L1328.44 1024L412 1024L870.22 324Z" fill="#156eb9" fill-rule="evenodd" opacity="1" stroke="none"/>
<path d="M153.78 324L153.78 324L611.999 1024L-304.44 1024L153.78 324Z" fill="#156eb9" fill-rule="evenodd" opacity="1" stroke="none"/>
<path d="M512 241.842L512 241.842L1024 1024L0 1024L512 241.842Z" fill="#065394" fill-rule="evenodd" opacity="1" stroke="none"/>
</g>
</g>
</g>
</svg>
